HIERARCHY
ROOT joint_Root
{
	OFFSET 0.0 0.0 0.0
	CHANNELS 6 Xposition Yposition Zposition Zrotation Xrotation Yrotation 
	JOINT Hips
	{
		OFFSET -17.1583 93.1646 452.98
		CHANNELS 6 Xposition Yposition Zposition Zrotation Xrotation Yrotation 
		JOINT Spine
		{
			OFFSET 15.7357 0.0 0.0
			CHANNELS 6 Xposition Yposition Zposition Zrotation Xrotation Yrotation 
			JOINT Chest
			{
				OFFSET 8.98455 -0.406207 0.0
				CHANNELS 6 Xposition Yposition Zposition Zrotation Xrotation Yrotation 
				JOINT Neck
				{
					OFFSET 16.3773 0.0 0.0
					CHANNELS 6 Xposition Yposition Zposition Zrotation Xrotation Yrotation 
					JOINT Head
					{
						OFFSET 6.45672 0.0 0.0
						CHANNELS 6 Xposition Yposition Zposition Zrotation Xrotation Yrotation 
						End Site
						{
							OFFSET 0.0 0.0 0.0
						}
					}
				}
				JOINT Shoulder_L
				{
					OFFSET 12.9942 -0.242716 4.98039
					CHANNELS 6 Xposition Yposition Zposition Zrotation Xrotation Yrotation 
					JOINT UpperArm_L
					{
						OFFSET 5.34809 0.0 0.0
						CHANNELS 6 Xposition Yposition Zposition Zrotation Xrotation Yrotation 
						JOINT LowerArm_L
						{
							OFFSET 24.3286 1.87007e-05 0.0
							CHANNELS 6 Xposition Yposition Zposition Zrotation Xrotation Yrotation 
							JOINT Hand_L
							{
								OFFSET 22.2916 0.0 0.0
								CHANNELS 6 Xposition Yposition Zposition Zrotation Xrotation Yrotation 
								End Site
								{
									OFFSET 0.0 0.0 0.0
								}
							}
						}
					}
				}
				JOINT Shoulder_R
				{
					OFFSET 12.9945 -0.242716 -4.98039
					CHANNELS 6 Xposition Yposition Zposition Zrotation Xrotation Yrotation 
					JOINT UpperArm_R
					{
						OFFSET -5.34813 0.0 0.0
						CHANNELS 6 Xposition Yposition Zposition Zrotation Xrotation Yrotation 
						JOINT LowerArm_R
						{
							OFFSET -24.3289 0.000322201 0.0
							CHANNELS 6 Xposition Yposition Zposition Zrotation Xrotation Yrotation 
							JOINT Hand_R
							{
								OFFSET -22.2915 -0.000108084 0.0
								CHANNELS 6 Xposition Yposition Zposition Zrotation Xrotation Yrotation 
								End Site
								{
									OFFSET 0.0 0.0 0.0
								}
							}
						}
					}
				}
			}
		}
		JOINT UpperLeg_L
		{
			OFFSET -2.19248 -6.46944 0.0
			CHANNELS 6 Xposition Yposition Zposition Zrotation Xrotation Yrotation 
			JOINT LowerLeg_L
			{
				OFFSET 39.0811 0.0 -1.23785e-05
				CHANNELS 6 Xposition Yposition Zposition Zrotation Xrotation Yrotation 
				JOINT Foot_L
				{
					OFFSET 40.9854 0.0 -1.26872e-05
					CHANNELS 6 Xposition Yposition Zposition Zrotation Xrotation Yrotation 
					JOINT Toes_L
					{
						OFFSET 11.7543 0.0 0.0
						CHANNELS 6 Xposition Yposition Zposition Zrotation Xrotation Yrotation 
						End Site
						{
							OFFSET 0.0 0.0 0.0
						}
					}
				}
			}
		}
		JOINT UpperLeg_R
		{
			OFFSET -2.19251 6.46944 0.0
			CHANNELS 6 Xposition Yposition Zposition Zrotation Xrotation Yrotation 
			JOINT LowerLeg_R
			{
				OFFSET -39.0811 -0.00228153 -0.0401928
				CHANNELS 6 Xposition Yposition Zposition Zrotation Xrotation Yrotation 
				JOINT Foot_R
				{
					OFFSET -40.9854 0.0 0.0
					CHANNELS 6 Xposition Yposition Zposition Zrotation Xrotation Yrotation 
					JOINT Toes_R
					{
						OFFSET -11.7543 0.0 0.0
						CHANNELS 6 Xposition Yposition Zposition Zrotation Xrotation Yrotation 
						End Site
						{
							OFFSET 0.0 0.0 0.0
						}
					}
				}
			}
		}
	}
}
MOTION
Frames:	5
Frame Time:	0.0333333
0.000000 0.000000 0.000000 0.000000 0.000000 -0.000000 -1.470190 92.880900 3.185340 89.473100 0.994894 -0.031915 15.735700 0.000005 -0.000001 85.188200 87.806300 -76.441500 8.984550 -0.406207 -0.000000 -3.242140 -1.204810 17.463900 16.377300 -0.000001 -0.000001 0.131111 3.708550 5.965070 6.456720 -0.000001 -0.000000 2.409780 5.355530 23.919000 12.994200 -0.242716 4.980390 -86.336100 -7.245150 -63.081000 5.348090 -0.000007 -0.000001 -29.680400 -57.878200 -66.010400 24.328600 0.000019 0.000005 1.094520 28.565700 -2.287950 22.291600 -0.000001 0.000005 44.237200 4.376330 18.599100 12.994500 -0.242716 -4.980390 89.165400 2.855550 -73.700200 -5.348130 -0.000001 -0.000004 -62.476300 3.812970 -0.414032 -24.328900 0.000322 -0.000009 1.825100 7.271570 -14.138400 -22.291500 -0.000108 -0.000004 6.821500 5.234650 1.835240 -2.192480 -6.469440 -0.000000 -173.624000 -11.142300 2.476470 39.081100 -0.000007 -0.000012 0.016431 -0.080053 11.599200 40.985400 -0.000006 -0.000013 -1.448480 17.898400 -68.875100 11.754300 -0.000000 0.000003 -0.000704 0.178739 -9.326580 -2.192510 6.469440 -0.000001 177.058000 3.796730 -177.617000 -39.081100 -0.002282 -0.040193 0.033459 -0.140837 12.073000 -40.985400 0.000008 0.000006 -4.648590 2.539420 -70.028000 -11.754300 -0.000006 -0.000006 -0.011679 0.283451 -5.053930
0.000000 0.000000 0.000000 0.000000 0.000000 -0.000000 -1.411970 92.872700 3.214610 89.483800 1.019150 0.007852 15.735700 0.000005 -0.000001 85.073900 87.790000 -76.335400 8.984550 -0.406207 -0.000000 -3.209900 -1.213090 17.447400 16.377300 -0.000001 -0.000001 0.125957 3.756850 5.920990 6.456720 -0.000001 -0.000000 2.411630 5.373900 23.872500 12.994200 -0.242716 4.980390 -86.352400 -7.225710 -63.122500 5.348090 -0.000007 -0.000001 -29.573000 -57.759900 -66.001200 24.328600 0.000019 0.000005 1.053560 28.603600 -2.199720 22.291600 -0.000001 0.000005 44.196600 4.370960 18.684100 12.994500 -0.242716 -4.980390 89.171700 2.831540 -73.687500 -5.348130 -0.000001 -0.000004 -62.606800 3.786500 -0.369089 -24.328900 0.000322 -0.000009 1.812190 7.217130 -14.143500 -22.291500 -0.000108 -0.000004 6.949030 5.237040 1.772680 -2.192480 -6.469440 -0.000000 -173.686000 -11.111300 2.508000 39.081100 -0.000007 -0.000012 0.018348 -0.088931 11.657900 40.985400 -0.000006 -0.000013 -1.233640 17.836200 -69.022100 11.754300 -0.000000 0.000003 -0.000883 0.181354 -9.220300 -2.192510 6.469440 -0.000001 176.999000 3.772630 -177.569000 -39.081100 -0.002282 -0.040193 0.033438 -0.140329 12.107200 -40.985400 0.000008 0.000006 -4.729600 2.547720 -70.078900 -11.754300 -0.000006 -0.000006 -0.012158 0.286780 -4.917560
0.000000 0.000000 0.000000 0.000000 0.000000 -0.000000 -1.346370 92.871500 3.227010 89.470800 0.977265 -0.002833 15.735700 0.000005 -0.000001 84.982100 87.779000 -76.228100 8.984550 -0.406207 -0.000000 -3.187560 -1.221820 17.478300 16.377300 -0.000001 -0.000001 0.157469 3.774710 5.947030 6.456720 -0.000001 -0.000000 2.355160 5.420930 23.706100 12.994200 -0.242716 4.980390 -86.364100 -7.196690 -63.104600 5.348090 -0.000007 -0.000001 -29.793100 -57.735100 -66.123200 24.328600 0.000019 0.000005 1.079470 28.583500 -2.255230 22.291600 -0.000001 0.000005 44.301600 4.377030 18.588100 12.994500 -0.242716 -4.980390 89.193700 2.760050 -73.709300 -5.348130 -0.000001 -0.000004 -62.716500 3.851790 -0.404971 -24.328900 0.000322 -0.000009 1.809630 7.234110 -14.092700 -22.291500 -0.000108 -0.000004 6.926850 5.237050 1.772600 -2.192480 -6.469440 -0.000000 -173.728000 -11.084500 2.521660 39.081100 -0.000007 -0.000012 0.019314 -0.093670 11.651200 40.985400 -0.000006 -0.000013 -1.133780 17.798700 -69.017700 11.754300 -0.000000 0.000003 -0.000567 0.176680 -9.410240 -2.192510 6.469440 -0.000001 176.963000 3.774300 -177.550000 -39.081100 -0.002282 -0.040193 0.032464 -0.136482 12.047700 -40.985400 0.000008 0.000006 -4.787380 2.565230 -70.017400 -11.754300 -0.000006 -0.000006 -0.012179 0.286922 -4.911770
0.000000 0.000000 0.000000 0.000000 0.000000 -0.000000 -1.292510 92.877800 3.254340 89.481000 0.959471 -0.023573 15.735700 0.000005 -0.000001 85.080400 87.780500 -76.339500 8.984550 -0.406207 -0.000000 -3.190960 -1.212990 17.452200 16.377300 -0.000001 -0.000001 0.164047 3.756010 5.957910 6.456720 -0.000001 -0.000000 2.329290 5.350580 23.767200 12.994200 -0.242716 4.980390 -86.361400 -7.201130 -63.101300 5.348090 -0.000007 -0.000001 -29.760800 -57.680400 -66.151500 24.328600 0.000019 0.000005 1.041680 28.466100 -2.184530 22.291600 -0.000001 0.000005 44.287800 4.374070 18.634900 12.994500 -0.242716 -4.980390 89.193700 2.764610 -73.733500 -5.348130 -0.000001 -0.000004 -62.753200 3.968070 -0.360451 -24.328900 0.000322 -0.000009 1.819730 7.275460 -14.091300 -22.291500 -0.000108 -0.000004 6.912220 5.236270 1.792760 -2.192480 -6.469440 -0.000000 -173.773000 -11.060000 2.550740 39.081100 -0.000007 -0.000012 0.018518 -0.090291 11.590300 40.985400 -0.000006 -0.000013 -1.197700 17.754400 -69.000300 11.754300 -0.000000 0.000003 -0.000658 0.178056 -9.354330 -2.192510 6.469440 -0.000001 176.886000 3.817150 -177.498000 -39.081100 -0.002282 -0.040193 0.029867 -0.125562 11.931300 -40.985400 0.000008 0.000006 -4.996100 2.661190 -69.905700 -11.754300 -0.000006 -0.000006 -0.011688 0.283514 -5.051320
0.000000 0.000000 0.000000 0.000000 0.000000 -0.000000 -1.241300 92.876100 3.267700 89.479000 0.951627 -0.110199 15.735700 0.000005 -0.000001 85.091600 87.807100 -76.353600 8.984550 -0.406207 -0.000000 -3.244100 -1.211360 17.446400 16.377300 -0.000001 -0.000001 0.178223 3.666590 6.016230 6.456720 -0.000001 -0.000000 2.375720 5.241900 23.762700 12.994200 -0.242716 4.980390 -86.357800 -7.209920 -63.106500 5.348090 -0.000007 -0.000001 -30.117900 -57.716200 -66.446600 24.328600 0.000019 0.000005 1.015070 28.529900 -2.124410 22.291600 -0.000001 0.000005 44.281200 4.376760 18.592300 12.994500 -0.242716 -4.980390 89.204000 2.729210 -73.734100 -5.348130 -0.000001 -0.000004 -62.792800 3.916890 -0.354712 -24.328900 0.000322 -0.000009 1.838590 7.356260 -14.082200 -22.291500 -0.000108 -0.000004 6.755310 5.232620 1.887710 -2.192480 -6.469440 -0.000000 -173.832000 -11.036600 2.484330 39.081100 -0.000007 -0.000012 0.019467 -0.095073 11.572000 40.985400 -0.000006 -0.000013 -1.083090 17.707000 -69.006000 11.754300 -0.000000 0.000003 -0.000486 0.175446 -9.460370 -2.192510 6.469440 -0.000001 176.865000 3.834810 -177.542000 -39.081100 -0.002282 -0.040193 0.029949 -0.126719 11.860700 -40.985400 0.000008 0.000006 -4.931890 2.638800 -69.889400 -11.754300 -0.000006 -0.000006 -0.011777 0.284135 -5.025890
